<mxfile host="Electron" modified="2024-06-21T23:25:52.355Z" agent="Mozilla/5.0 (Windows NT 10.0; Win64; x64) AppleWebKit/537.36 (KHTML, like Gecko) draw.io/24.5.3 Chrome/124.0.6367.207 Electron/30.0.6 Safari/537.36" etag="3rz1AcBZYra0o0rKZPIw" version="24.5.3" type="device">
  <diagram name="Flow (Verbose)" id="3TN6cZVEtIHhgVrUahzp">
    <mxGraphModel dx="1027" dy="989" grid="1" gridSize="10" guides="1" tooltips="1" connect="1" arrows="1" fold="1" page="1" pageScale="1" pageWidth="850" pageHeight="1100" math="0" shadow="0">
      <root>
        <mxCell id="0" />
        <mxCell id="1" parent="0" />
        <mxCell id="3DoDM7o3X_CVsNBAeAyS-2" value="Progam Start" style="triangle;whiteSpace=wrap;html=1;align=left;" vertex="1" parent="1">
          <mxGeometry x="20" y="25" width="120" height="80" as="geometry" />
        </mxCell>
        <mxCell id="3DoDM7o3X_CVsNBAeAyS-6" value="" style="edgeStyle=orthogonalEdgeStyle;rounded=0;orthogonalLoop=1;jettySize=auto;html=1;" edge="1" parent="1" source="3DoDM7o3X_CVsNBAeAyS-3" target="3DoDM7o3X_CVsNBAeAyS-5">
          <mxGeometry relative="1" as="geometry" />
        </mxCell>
        <mxCell id="3DoDM7o3X_CVsNBAeAyS-3" value="&lt;div&gt;Import&lt;/div&gt;&lt;div&gt;Configurations&lt;/div&gt;" style="rounded=0;whiteSpace=wrap;html=1;" vertex="1" parent="1">
          <mxGeometry x="140" y="105" width="120" height="60" as="geometry" />
        </mxCell>
        <mxCell id="3DoDM7o3X_CVsNBAeAyS-4" value="" style="endArrow=classic;html=1;rounded=0;exitX=1;exitY=0.5;exitDx=0;exitDy=0;entryX=0.5;entryY=0;entryDx=0;entryDy=0;" edge="1" parent="1" source="3DoDM7o3X_CVsNBAeAyS-2" target="3DoDM7o3X_CVsNBAeAyS-3">
          <mxGeometry width="50" height="50" relative="1" as="geometry">
            <mxPoint x="240" y="85" as="sourcePoint" />
            <mxPoint x="290" y="35" as="targetPoint" />
            <Array as="points">
              <mxPoint x="200" y="65" />
            </Array>
          </mxGeometry>
        </mxCell>
        <mxCell id="3DoDM7o3X_CVsNBAeAyS-10" value="" style="edgeStyle=orthogonalEdgeStyle;rounded=0;orthogonalLoop=1;jettySize=auto;html=1;" edge="1" parent="1" source="3DoDM7o3X_CVsNBAeAyS-5" target="3DoDM7o3X_CVsNBAeAyS-9">
          <mxGeometry relative="1" as="geometry" />
        </mxCell>
        <mxCell id="3DoDM7o3X_CVsNBAeAyS-5" value="Import Database&lt;div&gt;Table Schema &amp;amp;&amp;nbsp;&lt;/div&gt;&lt;div&gt;Default Values&lt;/div&gt;" style="rounded=0;whiteSpace=wrap;html=1;" vertex="1" parent="1">
          <mxGeometry x="140" y="185" width="120" height="60" as="geometry" />
        </mxCell>
        <mxCell id="3DoDM7o3X_CVsNBAeAyS-7" value="&lt;i style=&quot;font-size: 9px;&quot;&gt;&lt;font style=&quot;font-size: 9px;&quot;&gt;headers.ini - Includes host, user agrent, accepted encodings, cookies, etc. (stale cookies will return non-200 response codes)&lt;/font&gt;&lt;/i&gt;&lt;div style=&quot;font-size: 9px;&quot;&gt;&lt;i style=&quot;font-size: 9px;&quot;&gt;&lt;font style=&quot;font-size: 9px;&quot;&gt;request_filter.ini - Data related to the sorting function on the website - max price, shapes, etc.&amp;nbsp;&lt;/font&gt;&lt;/i&gt;&lt;/div&gt;&lt;div style=&quot;font-size: 9px;&quot;&gt;&lt;i style=&quot;font-size: 9px;&quot;&gt;secrets.ini - Data related to forming a connection with a PostgreSQL database (locally hosted in my instance)&lt;/i&gt;&lt;/div&gt;" style="text;html=1;align=left;verticalAlign=middle;whiteSpace=wrap;rounded=0;fontSize=9;" vertex="1" parent="1">
          <mxGeometry x="270" y="105" width="560" height="60" as="geometry" />
        </mxCell>
        <mxCell id="3DoDM7o3X_CVsNBAeAyS-8" value="&lt;font style=&quot;font-size: 9px;&quot;&gt;&lt;i style=&quot;font-size: 9px;&quot;&gt;Imports a python dictionary containing the database schema wherein the key is the column name&lt;/i&gt;&lt;/font&gt;&lt;div&gt;&lt;font style=&quot;font-size: 9px;&quot;&gt;&lt;i style=&quot;font-size: 9px;&quot;&gt;and the value is a default value in the type expected by the database (bool, float, string, etc.)&lt;/i&gt;&lt;/font&gt;&lt;/div&gt;" style="text;html=1;align=left;verticalAlign=middle;whiteSpace=wrap;rounded=0;fontSize=9;" vertex="1" parent="1">
          <mxGeometry x="270" y="185" width="560" height="60" as="geometry" />
        </mxCell>
        <mxCell id="3DoDM7o3X_CVsNBAeAyS-13" value="" style="edgeStyle=orthogonalEdgeStyle;rounded=0;orthogonalLoop=1;jettySize=auto;html=1;" edge="1" parent="1" source="3DoDM7o3X_CVsNBAeAyS-9" target="3DoDM7o3X_CVsNBAeAyS-12">
          <mxGeometry relative="1" as="geometry" />
        </mxCell>
        <mxCell id="3DoDM7o3X_CVsNBAeAyS-9" value="Generate&lt;div&gt;Base Request&amp;nbsp;&lt;/div&gt;&lt;div&gt;URL&lt;/div&gt;" style="rounded=0;whiteSpace=wrap;html=1;" vertex="1" parent="1">
          <mxGeometry x="140" y="275" width="120" height="60" as="geometry" />
        </mxCell>
        <mxCell id="3DoDM7o3X_CVsNBAeAyS-11" value="&lt;i&gt;Generates a base URL plus all of the additional appends that specify the different parameters of the search&lt;/i&gt;&lt;div&gt;&lt;i&gt;such as size, length, price, clarity, etc. These are found in&amp;nbsp;&lt;/i&gt;&lt;i style=&quot;background-color: initial;&quot;&gt;request_filter.ini parameters&lt;/i&gt;&lt;/div&gt;" style="text;html=1;align=left;verticalAlign=middle;whiteSpace=wrap;rounded=0;fontSize=9;" vertex="1" parent="1">
          <mxGeometry x="270" y="275" width="560" height="60" as="geometry" />
        </mxCell>
        <mxCell id="3DoDM7o3X_CVsNBAeAyS-35" value="" style="edgeStyle=orthogonalEdgeStyle;rounded=0;orthogonalLoop=1;jettySize=auto;html=1;entryX=0.5;entryY=0;entryDx=0;entryDy=0;" edge="1" parent="1" source="3DoDM7o3X_CVsNBAeAyS-12" target="3DoDM7o3X_CVsNBAeAyS-32">
          <mxGeometry relative="1" as="geometry">
            <mxPoint x="200" y="505" as="targetPoint" />
          </mxGeometry>
        </mxCell>
        <mxCell id="3DoDM7o3X_CVsNBAeAyS-12" value="Send Initial&lt;div&gt;Request&lt;/div&gt;" style="rounded=0;whiteSpace=wrap;html=1;" vertex="1" parent="1">
          <mxGeometry x="140" y="355" width="120" height="60" as="geometry" />
        </mxCell>
        <mxCell id="3DoDM7o3X_CVsNBAeAyS-14" value="&lt;i&gt;Sends an initial query for the first page of diamonds. This is done as it also returns a &#39;total_count&#39;&lt;/i&gt;&lt;div&gt;&lt;i&gt;parameter which contains an integer detailing how many diamonds fit the criteria in the request_filter.ini parameters&lt;/i&gt;&lt;/div&gt;&lt;div&gt;&lt;i&gt;This also handles any errors in response. Brilliant Earth uses CloudFlare protection which forces the user to do a robot-check&lt;/i&gt;&lt;/div&gt;&lt;div&gt;&lt;i&gt;the first time they run the script to (what I believe is) authenticate the cookie&amp;nbsp;&lt;/i&gt;&lt;/div&gt;" style="text;html=1;align=left;verticalAlign=middle;whiteSpace=wrap;rounded=0;fontSize=9;" vertex="1" parent="1">
          <mxGeometry x="270" y="355" width="560" height="60" as="geometry" />
        </mxCell>
        <mxCell id="3DoDM7o3X_CVsNBAeAyS-45" value="" style="edgeStyle=orthogonalEdgeStyle;rounded=0;orthogonalLoop=1;jettySize=auto;html=1;" edge="1" parent="1" source="3DoDM7o3X_CVsNBAeAyS-21" target="3DoDM7o3X_CVsNBAeAyS-44">
          <mxGeometry relative="1" as="geometry" />
        </mxCell>
        <mxCell id="3DoDM7o3X_CVsNBAeAyS-21" value="Take&amp;nbsp;&lt;i style=&quot;background-color: initial;&quot;&gt;total_count&lt;/i&gt;&lt;div&gt;parameter &amp;amp; perform&lt;/div&gt;&lt;div&gt;calculations&amp;nbsp;&lt;/div&gt;" style="rounded=0;whiteSpace=wrap;html=1;" vertex="1" parent="1">
          <mxGeometry x="140" y="595" width="120" height="60" as="geometry" />
        </mxCell>
        <mxCell id="3DoDM7o3X_CVsNBAeAyS-23" value="CloudFlare&lt;div&gt;Auth. Warning&amp;nbsp;&lt;/div&gt;&lt;div&gt;Message&lt;br&gt;&lt;/div&gt;" style="rounded=0;whiteSpace=wrap;html=1;" vertex="1" parent="1">
          <mxGeometry x="300" y="440" width="120" height="60" as="geometry" />
        </mxCell>
        <mxCell id="3DoDM7o3X_CVsNBAeAyS-25" value="Unparsable Response&lt;div&gt;Message&lt;/div&gt;" style="rounded=0;whiteSpace=wrap;html=1;" vertex="1" parent="1">
          <mxGeometry x="300" y="520" width="120" height="60" as="geometry" />
        </mxCell>
        <mxCell id="3DoDM7o3X_CVsNBAeAyS-27" value="Program Exit" style="rounded=0;whiteSpace=wrap;html=1;" vertex="1" parent="1">
          <mxGeometry x="460" y="480" width="120" height="60" as="geometry" />
        </mxCell>
        <mxCell id="3DoDM7o3X_CVsNBAeAyS-30" value="" style="endArrow=classic;html=1;rounded=0;entryX=0;entryY=0.5;entryDx=0;entryDy=0;exitX=1;exitY=0.5;exitDx=0;exitDy=0;" edge="1" parent="1" source="3DoDM7o3X_CVsNBAeAyS-25" target="3DoDM7o3X_CVsNBAeAyS-27">
          <mxGeometry width="50" height="50" relative="1" as="geometry">
            <mxPoint x="400" y="560" as="sourcePoint" />
            <mxPoint x="450" y="510" as="targetPoint" />
            <Array as="points">
              <mxPoint x="440" y="550" />
              <mxPoint x="440" y="510" />
            </Array>
          </mxGeometry>
        </mxCell>
        <mxCell id="3DoDM7o3X_CVsNBAeAyS-31" value="" style="endArrow=classic;html=1;rounded=0;entryX=0;entryY=0.5;entryDx=0;entryDy=0;exitX=1;exitY=0.5;exitDx=0;exitDy=0;" edge="1" parent="1" source="3DoDM7o3X_CVsNBAeAyS-23" target="3DoDM7o3X_CVsNBAeAyS-27">
          <mxGeometry width="50" height="50" relative="1" as="geometry">
            <mxPoint x="350" y="520" as="sourcePoint" />
            <mxPoint x="400" y="470" as="targetPoint" />
            <Array as="points">
              <mxPoint x="440" y="470" />
              <mxPoint x="440" y="510" />
            </Array>
          </mxGeometry>
        </mxCell>
        <mxCell id="3DoDM7o3X_CVsNBAeAyS-32" value="Response.Status" style="rounded=0;whiteSpace=wrap;html=1;" vertex="1" parent="1">
          <mxGeometry x="140" y="435" width="120" height="20" as="geometry" />
        </mxCell>
        <mxCell id="3DoDM7o3X_CVsNBAeAyS-36" value="403" style="endArrow=classic;html=1;rounded=0;entryX=0;entryY=0.5;entryDx=0;entryDy=0;exitX=0.75;exitY=1;exitDx=0;exitDy=0;fontStyle=2" edge="1" parent="1" source="3DoDM7o3X_CVsNBAeAyS-32" target="3DoDM7o3X_CVsNBAeAyS-23">
          <mxGeometry x="0.0588" width="50" height="50" relative="1" as="geometry">
            <mxPoint x="180" y="555" as="sourcePoint" />
            <mxPoint x="230" y="505" as="targetPoint" />
            <Array as="points">
              <mxPoint x="230" y="470" />
            </Array>
            <mxPoint as="offset" />
          </mxGeometry>
        </mxCell>
        <mxCell id="3DoDM7o3X_CVsNBAeAyS-37" value="Not&lt;div&gt;403&lt;/div&gt;&lt;div&gt;or&lt;/div&gt;&lt;div&gt;200&lt;/div&gt;" style="endArrow=classic;html=1;rounded=0;entryX=0;entryY=0.5;entryDx=0;entryDy=0;exitX=0.5;exitY=1;exitDx=0;exitDy=0;fontStyle=2" edge="1" parent="1" source="3DoDM7o3X_CVsNBAeAyS-32" target="3DoDM7o3X_CVsNBAeAyS-25">
          <mxGeometry x="-0.5385" width="50" height="50" relative="1" as="geometry">
            <mxPoint x="140" y="575" as="sourcePoint" />
            <mxPoint x="190" y="525" as="targetPoint" />
            <Array as="points">
              <mxPoint x="200" y="550" />
            </Array>
            <mxPoint as="offset" />
          </mxGeometry>
        </mxCell>
        <mxCell id="3DoDM7o3X_CVsNBAeAyS-38" value="200" style="endArrow=classic;html=1;rounded=0;exitX=0.25;exitY=1;exitDx=0;exitDy=0;entryX=0.25;entryY=0;entryDx=0;entryDy=0;fontStyle=2" edge="1" parent="1" source="3DoDM7o3X_CVsNBAeAyS-32" target="3DoDM7o3X_CVsNBAeAyS-21">
          <mxGeometry x="-0.0769" width="50" height="50" relative="1" as="geometry">
            <mxPoint x="120" y="595" as="sourcePoint" />
            <mxPoint x="170" y="545" as="targetPoint" />
            <mxPoint as="offset" />
          </mxGeometry>
        </mxCell>
        <mxCell id="3DoDM7o3X_CVsNBAeAyS-40" value="&lt;i&gt;total_count is an integer detailing how many diamonds fit the criteria passed in the request_filter.ini configuration file&lt;/i&gt;&lt;div&gt;&lt;i&gt;It may be recommended to look at this paramater on the website before starting the script&lt;/i&gt;&lt;/div&gt;&lt;div&gt;&lt;i&gt;The script then calculates the number of pages to scrape (total_count / 50) as there are 50 diamonds per page&lt;/i&gt;&lt;/div&gt;" style="text;html=1;align=left;verticalAlign=middle;whiteSpace=wrap;rounded=0;fontSize=9;" vertex="1" parent="1">
          <mxGeometry x="270" y="595" width="560" height="60" as="geometry" />
        </mxCell>
        <mxCell id="3DoDM7o3X_CVsNBAeAyS-48" value="" style="edgeStyle=orthogonalEdgeStyle;rounded=0;orthogonalLoop=1;jettySize=auto;html=1;" edge="1" parent="1" source="3DoDM7o3X_CVsNBAeAyS-44" target="3DoDM7o3X_CVsNBAeAyS-47">
          <mxGeometry relative="1" as="geometry" />
        </mxCell>
        <mxCell id="3DoDM7o3X_CVsNBAeAyS-44" value="Setup Connection&lt;div&gt;to PostgreSQL&lt;/div&gt;&lt;div&gt;using Psycopg2&lt;/div&gt;" style="rounded=0;whiteSpace=wrap;html=1;" vertex="1" parent="1">
          <mxGeometry x="140" y="675" width="120" height="60" as="geometry" />
        </mxCell>
        <mxCell id="3DoDM7o3X_CVsNBAeAyS-46" value="&lt;i&gt;Sets up connection with the database (returning a&amp;nbsp; connection object) using the secrets.ini file for database credentials&lt;/i&gt;&lt;div&gt;&lt;i&gt;A cursor is also setup&lt;/i&gt;&lt;/div&gt;" style="text;html=1;align=left;verticalAlign=middle;whiteSpace=wrap;rounded=0;fontSize=9;" vertex="1" parent="1">
          <mxGeometry x="270" y="675" width="560" height="60" as="geometry" />
        </mxCell>
        <mxCell id="3DoDM7o3X_CVsNBAeAyS-52" value="" style="edgeStyle=orthogonalEdgeStyle;rounded=0;orthogonalLoop=1;jettySize=auto;html=1;entryX=0.5;entryY=0;entryDx=0;entryDy=0;" edge="1" parent="1" source="3DoDM7o3X_CVsNBAeAyS-47" target="3DoDM7o3X_CVsNBAeAyS-53">
          <mxGeometry relative="1" as="geometry">
            <mxPoint x="220" y="885" as="targetPoint" />
          </mxGeometry>
        </mxCell>
        <mxCell id="3DoDM7o3X_CVsNBAeAyS-47" value="Generate&lt;div&gt;SQL Command&lt;/div&gt;" style="rounded=0;whiteSpace=wrap;html=1;" vertex="1" parent="1">
          <mxGeometry x="140" y="755" width="120" height="60" as="geometry" />
        </mxCell>
        <mxCell id="3DoDM7o3X_CVsNBAeAyS-50" value="&lt;i&gt;Generates a python string that contains the exact SQL statement required to push items into the be_diamonds table in the PostgreSQL&lt;/i&gt;&lt;div&gt;&lt;i&gt;database. This is done partially manually (typed &#39;INSERT INTO be_diamonds&#39;) and automatically by looping through the db_defaults&lt;/i&gt;&lt;/div&gt;&lt;div&gt;&lt;i&gt;dictionary object where the keys match up with the column names of the PostgreSQL table&lt;/i&gt;&lt;/div&gt;" style="text;html=1;align=left;verticalAlign=middle;whiteSpace=wrap;rounded=0;fontSize=9;" vertex="1" parent="1">
          <mxGeometry x="270" y="755" width="560" height="60" as="geometry" />
        </mxCell>
        <mxCell id="3DoDM7o3X_CVsNBAeAyS-53" value="For &lt;i&gt;page_number&lt;/i&gt;&lt;div&gt;in &lt;i&gt;num_requests&lt;/i&gt;&lt;/div&gt;" style="rounded=1;whiteSpace=wrap;html=1;" vertex="1" parent="1">
          <mxGeometry x="140" y="835" width="120" height="60" as="geometry" />
        </mxCell>
        <mxCell id="3DoDM7o3X_CVsNBAeAyS-54" value="&lt;span style=&quot;font-size: 11px;&quot;&gt;&lt;font style=&quot;font-size: 11px;&quot;&gt;&lt;i&gt;page_number&lt;/i&gt; &amp;lt;=&amp;nbsp;&lt;/font&gt;&lt;/span&gt;&lt;div style=&quot;font-size: 11px;&quot;&gt;&lt;font style=&quot;font-size: 11px;&quot;&gt;&lt;i&gt;num_requests&lt;/i&gt;&lt;/font&gt;&lt;/div&gt;" style="endArrow=classic;html=1;rounded=0;exitX=1;exitY=0.5;exitDx=0;exitDy=0;fontSize=9;entryX=0;entryY=0.5;entryDx=0;entryDy=0;" edge="1" parent="1" source="3DoDM7o3X_CVsNBAeAyS-53" target="3DoDM7o3X_CVsNBAeAyS-61">
          <mxGeometry x="-0.0769" width="50" height="50" relative="1" as="geometry">
            <mxPoint x="300" y="875" as="sourcePoint" />
            <mxPoint x="360" y="885" as="targetPoint" />
            <Array as="points">
              <mxPoint x="320" y="865" />
            </Array>
            <mxPoint as="offset" />
          </mxGeometry>
        </mxCell>
        <mxCell id="3DoDM7o3X_CVsNBAeAyS-60" value="" style="edgeStyle=orthogonalEdgeStyle;rounded=0;orthogonalLoop=1;jettySize=auto;html=1;" edge="1" parent="1" source="3DoDM7o3X_CVsNBAeAyS-56" target="3DoDM7o3X_CVsNBAeAyS-59">
          <mxGeometry relative="1" as="geometry" />
        </mxCell>
        <mxCell id="3DoDM7o3X_CVsNBAeAyS-56" value="Close Connection&lt;div&gt;to Database&lt;/div&gt;" style="rounded=0;whiteSpace=wrap;html=1;" vertex="1" parent="1">
          <mxGeometry x="140" y="965" width="120" height="60" as="geometry" />
        </mxCell>
        <mxCell id="3DoDM7o3X_CVsNBAeAyS-57" value="&lt;i&gt;page_number&lt;/i&gt; &amp;gt;&lt;div&gt;&lt;i&gt;num_requests&lt;/i&gt;&lt;/div&gt;" style="endArrow=classic;html=1;rounded=0;exitX=0.25;exitY=1;exitDx=0;exitDy=0;entryX=0.25;entryY=0;entryDx=0;entryDy=0;" edge="1" parent="1" source="3DoDM7o3X_CVsNBAeAyS-53" target="3DoDM7o3X_CVsNBAeAyS-56">
          <mxGeometry width="50" height="50" relative="1" as="geometry">
            <mxPoint x="430" y="1095" as="sourcePoint" />
            <mxPoint x="480" y="1045" as="targetPoint" />
          </mxGeometry>
        </mxCell>
        <mxCell id="3DoDM7o3X_CVsNBAeAyS-59" value="Program&lt;div&gt;Termination&lt;/div&gt;" style="shape=parallelogram;perimeter=parallelogramPerimeter;whiteSpace=wrap;html=1;fixedSize=1;" vertex="1" parent="1">
          <mxGeometry x="140" y="1045" width="120" height="30" as="geometry" />
        </mxCell>
        <mxCell id="3DoDM7o3X_CVsNBAeAyS-63" value="" style="edgeStyle=orthogonalEdgeStyle;rounded=0;orthogonalLoop=1;jettySize=auto;html=1;" edge="1" parent="1" source="3DoDM7o3X_CVsNBAeAyS-61" target="3DoDM7o3X_CVsNBAeAyS-62">
          <mxGeometry relative="1" as="geometry" />
        </mxCell>
        <mxCell id="3DoDM7o3X_CVsNBAeAyS-61" value="Send Request&lt;div&gt;to Website&lt;/div&gt;" style="rounded=0;whiteSpace=wrap;html=1;" vertex="1" parent="1">
          <mxGeometry x="380" y="835" width="120" height="60" as="geometry" />
        </mxCell>
        <mxCell id="3DoDM7o3X_CVsNBAeAyS-62" value="Response&amp;nbsp;&lt;div&gt;Handler&lt;/div&gt;&lt;div&gt;(&lt;i&gt;Same as above&lt;/i&gt;)&lt;/div&gt;" style="rounded=0;whiteSpace=wrap;html=1;" vertex="1" parent="1">
          <mxGeometry x="530" y="835" width="120" height="60" as="geometry" />
        </mxCell>
        <mxCell id="3DoDM7o3X_CVsNBAeAyS-87" value="" style="edgeStyle=orthogonalEdgeStyle;rounded=0;orthogonalLoop=1;jettySize=auto;html=1;" edge="1" parent="1" source="3DoDM7o3X_CVsNBAeAyS-64" target="3DoDM7o3X_CVsNBAeAyS-66">
          <mxGeometry relative="1" as="geometry" />
        </mxCell>
        <mxCell id="3DoDM7o3X_CVsNBAeAyS-64" value="Parse Response&lt;div&gt;to Tuple of&lt;/div&gt;&lt;div&gt;Values&lt;/div&gt;" style="rounded=0;whiteSpace=wrap;html=1;" vertex="1" parent="1">
          <mxGeometry x="530" y="915" width="120" height="60" as="geometry" />
        </mxCell>
        <mxCell id="3DoDM7o3X_CVsNBAeAyS-88" value="" style="edgeStyle=orthogonalEdgeStyle;rounded=0;orthogonalLoop=1;jettySize=auto;html=1;" edge="1" parent="1" source="3DoDM7o3X_CVsNBAeAyS-66" target="3DoDM7o3X_CVsNBAeAyS-68">
          <mxGeometry relative="1" as="geometry" />
        </mxCell>
        <mxCell id="3DoDM7o3X_CVsNBAeAyS-66" value="Execute SQL Command to&lt;div&gt;Push Data to Database&lt;/div&gt;" style="rounded=0;whiteSpace=wrap;html=1;" vertex="1" parent="1">
          <mxGeometry x="530" y="995" width="120" height="60" as="geometry" />
        </mxCell>
        <mxCell id="3DoDM7o3X_CVsNBAeAyS-94" value="" style="edgeStyle=orthogonalEdgeStyle;rounded=0;orthogonalLoop=1;jettySize=auto;html=1;" edge="1" parent="1" source="3DoDM7o3X_CVsNBAeAyS-68" target="3DoDM7o3X_CVsNBAeAyS-70">
          <mxGeometry relative="1" as="geometry" />
        </mxCell>
        <mxCell id="3DoDM7o3X_CVsNBAeAyS-68" value="Increment&lt;div&gt;Page Number&lt;/div&gt;" style="rounded=0;whiteSpace=wrap;html=1;" vertex="1" parent="1">
          <mxGeometry x="380" y="995" width="120" height="60" as="geometry" />
        </mxCell>
        <mxCell id="3DoDM7o3X_CVsNBAeAyS-70" value="Sleep for&lt;div&gt;&lt;i&gt;request_delay&lt;/i&gt;&lt;/div&gt;&lt;div&gt;Number of Seconds&lt;/div&gt;" style="rounded=0;whiteSpace=wrap;html=1;" vertex="1" parent="1">
          <mxGeometry x="380" y="915" width="120" height="60" as="geometry" />
        </mxCell>
        <mxCell id="3DoDM7o3X_CVsNBAeAyS-85" value="" style="endArrow=classic;html=1;rounded=0;exitX=0.5;exitY=1;exitDx=0;exitDy=0;entryX=0.5;entryY=0;entryDx=0;entryDy=0;" edge="1" parent="1" source="3DoDM7o3X_CVsNBAeAyS-62" target="3DoDM7o3X_CVsNBAeAyS-64">
          <mxGeometry width="50" height="50" relative="1" as="geometry">
            <mxPoint x="720" y="935" as="sourcePoint" />
            <mxPoint x="770" y="885" as="targetPoint" />
          </mxGeometry>
        </mxCell>
        <mxCell id="3DoDM7o3X_CVsNBAeAyS-95" value="" style="endArrow=classic;html=1;rounded=0;entryX=0.75;entryY=1;entryDx=0;entryDy=0;exitX=0;exitY=0.5;exitDx=0;exitDy=0;" edge="1" parent="1" source="3DoDM7o3X_CVsNBAeAyS-70" target="3DoDM7o3X_CVsNBAeAyS-53">
          <mxGeometry width="50" height="50" relative="1" as="geometry">
            <mxPoint x="290" y="1005" as="sourcePoint" />
            <mxPoint x="340" y="955" as="targetPoint" />
            <Array as="points">
              <mxPoint x="230" y="945" />
            </Array>
          </mxGeometry>
        </mxCell>
      </root>
    </mxGraphModel>
  </diagram>
</mxfile>
